<?xml version="1.0" encoding="utf-8"?>
<!-- Generator: Adobe Illustrator 27.5.0, SVG Export Plug-In . SVG Version: 6.00 Build 0)  -->
<svg version="1.1" xmlns="http://www.w3.org/2000/svg" xmlns:xlink="http://www.w3.org/1999/xlink" x="0px" y="0px"
	 viewBox="0 0 500 500" style="enable-background:new 0 0 500 500;" xml:space="preserve">
<g id="BACKGROUND">
</g>
<g id="OBJECTS">
	
		<text transform="matrix(1 0 0 1 232.7505 343.8785)" style="fill:#97B8F7; font-family:'Montserrat-ExtraBold'; font-size:25.3811px;">SPEECH</text>
	
		<text transform="matrix(0.974 0 0 1 233.2642 367.0593)" style="fill:#606060; font-family:'Montserrat-Light'; font-size:22.7724px;">THERAPY</text>
	<path style="fill:#97B8F7;" d="M310.485,241.736c0,0-18.251-23.125-18.275-23.156c-0.718-0.91,0.007-6.324-0.002-7.5
		c-0.113-15.325-1.234-30.586-8.363-44.37c4.991,2.118,15.24,9.424,15.24,9.424c0-8.384-5.29-17.068-5.29-17.068
		C305.772,145.891,306,124.32,306,124.32s-41.251,10.491-87.366,6.299c-46.114-4.192-73.663,32.939-80.85,58.691
		c-7.187,25.752,14.972,61.086,20.362,68.872c5.39,7.785-2.396,14.373-2.396,14.373c4.345-0.136,7.511-0.922,9.824-2.05
		c0.016,1.185,0.005,2.37-0.016,3.549c-0.111,6.14-1.11,12.129-2.691,18.003c-0.183,0.681-0.077,1.402,0.322,1.983
		c7.802,11.367,24.458,29.606,53.174,34.315c1.238,0.203,5.094,1.784,5.396,0.566c0,0-0.244-14.158,0.313-16.989
		c0.324-1.646,1.801-2.802,3.477-2.722c11.072,0.53,26.532,0.754,34.392,0.968c16.864,0.461,30.512,1.316,32.268-20.055v-10.752
		c-19.058-1.799-23.946-11.378-23.946-11.378h23.946v-7.136c0-3.289,2.667-5.956,5.956-5.956
		C298.165,254.901,317.536,252.086,310.485,241.736z M271.743,223.546c-3.285,25.913-26.044,45.982-53.652,45.982
		c-29.865,0-54.075-23.48-54.075-52.443c0-28.963,24.21-52.443,54.075-52.443c28.333,0,51.561,21.138,53.871,48.037
		c13.495,3.512,17.252,10.866,17.252,10.866H271.743z"/>
	<g>
		<path style="fill:#606060;" d="M217.748,218.61l2.921,1.385c1.284,0.609,2.819,0.062,3.429-1.222l3.536-7.455
			c0.609-1.284,0.062-2.819-1.222-3.429l-3.741-1.774c-0.222-0.105-0.358-0.329-0.354-0.574c0.012-0.632-0.001-1.27-0.053-1.913
			c-0.098-1.217-0.305-2.398-0.607-3.538c-0.068-0.255,0.027-0.52,0.244-0.669l2.866-1.979c1.17-0.808,1.463-2.411,0.656-3.58
			l-4.688-6.79c-0.808-1.17-2.411-1.464-3.581-0.656l-3.123,2.156c-0.209,0.144-0.479,0.144-0.691,0.005
			c-1.642-1.079-3.451-1.908-5.369-2.466c-0.248-0.072-0.427-0.285-0.448-0.543l-0.239-2.951c-0.115-1.417-1.356-2.473-2.773-2.358
			l-8.224,0.665c-1.417,0.115-2.473,1.356-2.358,2.773l0.239,2.951c0.021,0.258-0.122,0.497-0.355,0.609
			c-2.053,0.98-3.902,2.295-5.484,3.874c-0.187,0.186-0.466,0.239-0.704,0.125l-1.92-0.911c-1.285-0.609-2.82-0.062-3.429,1.222
			l-3.536,7.455c-0.609,1.284-0.062,2.819,1.223,3.428l2.192,1.04c0.231,0.11,0.369,0.348,0.353,0.604
			c-0.056,0.904-0.064,1.818,0.011,2.747c0.121,1.495,0.422,2.93,0.851,4.304c0.082,0.262-0.011,0.543-0.237,0.699l-1.526,1.053
			c-1.17,0.808-1.463,2.411-0.656,3.581l4.688,6.79c0.807,1.17,2.41,1.464,3.58,0.656l2.282-1.576
			c0.201-0.139,0.461-0.144,0.671-0.019c1.901,1.139,3.997,1.964,6.222,2.419c0.273,0.056,0.477,0.279,0.499,0.556l0.196,2.419
			c0.115,1.417,1.356,2.473,2.773,2.358l8.224-0.665c1.417-0.115,2.473-1.356,2.358-2.773l-0.294-3.634
			c-0.019-0.238,0.101-0.461,0.307-0.582c1.706-1,3.244-2.238,4.571-3.674C217.212,218.553,217.501,218.493,217.748,218.61z
			 M203.973,214.909c-5.378,0.435-10.091-3.573-10.526-8.951c-0.435-5.378,3.573-10.091,8.951-10.525
			c5.378-0.435,10.091,3.572,10.526,8.951C213.358,209.761,209.351,214.474,203.973,214.909z"/>
		<path style="fill:#606060;" d="M251.483,239.44l-2.602-1.234c-0.154-0.073-0.249-0.229-0.246-0.4
			c0.008-0.44-0.001-0.883-0.037-1.331c-0.068-0.846-0.212-1.668-0.423-2.461c-0.047-0.177,0.019-0.361,0.17-0.466l1.993-1.376
			c0.814-0.562,1.018-1.677,0.456-2.491l-3.261-4.723c-0.562-0.814-1.677-1.018-2.491-0.456l-2.173,1.5
			c-0.145,0.1-0.333,0.1-0.481,0.003c-1.142-0.75-2.401-1.327-3.735-1.715c-0.173-0.05-0.297-0.198-0.312-0.378l-0.166-2.053
			c-0.08-0.986-0.943-1.72-1.929-1.64l-5.721,0.463c-0.986,0.08-1.72,0.943-1.64,1.929l0.166,2.053
			c0.014,0.179-0.085,0.346-0.247,0.423c-1.428,0.682-2.714,1.596-3.815,2.695c-0.13,0.13-0.324,0.166-0.49,0.087l-1.336-0.634
			c-0.893-0.424-1.961-0.043-2.385,0.85l-2.46,5.186c-0.424,0.893-0.043,1.961,0.85,2.385l1.525,0.723
			c0.161,0.076,0.257,0.242,0.246,0.42c-0.039,0.628-0.044,1.265,0.008,1.911c0.084,1.04,0.293,2.038,0.592,2.994
			c0.057,0.182-0.008,0.378-0.165,0.486l-1.061,0.733c-0.814,0.562-1.018,1.677-0.456,2.491l3.261,4.723
			c0.562,0.814,1.677,1.018,2.491,0.456l1.588-1.096c0.14-0.097,0.321-0.1,0.467-0.013c1.322,0.792,2.78,1.366,4.328,1.683
			c0.19,0.039,0.332,0.194,0.347,0.387l0.136,1.683c0.08,0.986,0.943,1.72,1.929,1.64l5.72-0.463c0.986-0.08,1.72-0.943,1.64-1.929
			l-0.204-2.528c-0.013-0.165,0.07-0.321,0.214-0.405c1.186-0.695,2.257-1.557,3.179-2.556c0.129-0.139,0.33-0.181,0.501-0.1
			l2.032,0.964c0.893,0.424,1.961,0.043,2.385-0.85l2.46-5.186C252.757,240.932,252.376,239.864,251.483,239.44z M235.875,244.322
			c-3.741,0.302-7.019-2.485-7.322-6.226c-0.302-3.741,2.485-7.019,6.226-7.322c3.741-0.303,7.019,2.485,7.322,6.226
			C242.403,240.742,239.616,244.02,235.875,244.322z"/>
		<path style="fill:#606060;" d="M251.002,202.947l-1.625-0.231c-0.108-0.015-0.194-0.095-0.221-0.201
			c-0.205-0.824-0.537-1.618-0.983-2.358c-0.058-0.096-0.052-0.216,0.017-0.304l0.79-1.008c0.379-0.484,0.295-1.183-0.189-1.562
			l-2.808-2.201c-0.484-0.379-1.183-0.294-1.563,0.189l-0.79,1.007c-0.069,0.088-0.185,0.122-0.291,0.089
			c-0.94-0.291-1.913-0.415-2.879-0.378c-0.114,0.005-0.218-0.061-0.26-0.167l-0.343-0.852c-0.229-0.57-0.878-0.847-1.448-0.617
			l-3.31,1.331c-0.57,0.229-0.847,0.878-0.617,1.448l0.391,0.973c0.041,0.103,0.015,0.219-0.065,0.296
			c-0.283,0.271-0.554,0.559-0.802,0.876c-0.4,0.51-0.726,1.055-0.992,1.617c-0.051,0.107-0.163,0.169-0.281,0.152l-0.794-0.113
			c-0.609-0.087-1.172,0.337-1.259,0.945l-0.502,3.532c-0.087,0.609,0.337,1.172,0.945,1.259l1.187,0.169
			c0.105,0.015,0.189,0.089,0.219,0.191c0.27,0.919,0.694,1.796,1.267,2.594c0.07,0.098,0.07,0.228-0.004,0.323l-0.647,0.826
			c-0.379,0.484-0.294,1.183,0.189,1.563l2.808,2.201c0.484,0.379,1.183,0.295,1.563-0.189l0.973-1.241
			c0.064-0.081,0.167-0.117,0.268-0.095c0.835,0.183,1.687,0.241,2.53,0.173c0.118-0.009,0.227,0.056,0.271,0.166l0.521,1.297
			c0.229,0.57,0.878,0.847,1.448,0.617l3.31-1.331c0.57-0.229,0.847-0.878,0.617-1.448l-0.668-1.661
			c-0.04-0.098-0.017-0.209,0.056-0.286c0.189-0.197,0.372-0.403,0.544-0.623c0.326-0.415,0.607-0.851,0.845-1.302
			c0.053-0.101,0.161-0.157,0.274-0.141l1.491,0.212c0.609,0.087,1.172-0.337,1.259-0.945l0.502-3.532
			C252.034,203.597,251.611,203.033,251.002,202.947z M244.388,207.414c-1.439,1.836-4.095,2.158-5.931,0.718
			c-1.836-1.439-2.158-4.095-0.718-5.931c1.439-1.836,4.095-2.158,5.931-0.718C245.506,202.922,245.828,205.577,244.388,207.414z"/>
	</g>
	<path style="fill:#89A7E0;" d="M221.76,328.92c0,0-0.244-14.158,0.313-16.989c0.324-1.646,1.801-2.802,3.477-2.722
		c11.072,0.53,26.532,0.754,34.392,0.968c14.98,0.409,27.415,1.115,31.239-13.708c-18.685-10.49-34.91-21.408-48.976-32.435
		c-7.258,3.515-15.446,5.495-24.112,5.495c-29.865,0-54.075-23.48-54.075-52.443c0-11.031,3.52-21.261,9.518-29.707
		c-7.224-12.355-12.214-23.598-15.655-33.058c-10.291,11.017-17.037,24.032-20.095,34.989
		c-7.187,25.752,14.972,61.086,20.362,68.872c5.39,7.786-2.396,14.373-2.396,14.373c4.345-0.136,7.511-0.922,9.824-2.05
		c0.016,1.185,0.005,2.37-0.016,3.549c-0.111,6.14-1.11,12.129-2.691,18.003c-0.183,0.681-0.077,1.402,0.322,1.983
		c7.801,11.367,24.458,29.606,53.174,34.315C217.602,328.557,221.459,330.138,221.76,328.92z"/>
	<path style="fill:#606060;" d="M160.148,288.889c1.019-0.381,2.577-0.835,3.637-0.544l-0.945,3.9
		c13.688,12.708,40.38,24.433,59.501,29.794c0.862,0.242,1.455,1.022,1.451,1.918l-0.214,40.462c-0.008,1.521-1.654,2.47-2.97,1.708
		c-9.911-5.739-42.656-25.71-65.636-51.589c-0.412-0.464-0.581-1.097-0.462-1.706l4.407-22.475
		C159.048,289.689,159.51,289.128,160.148,288.889z"/>
</g>
</svg>
