<svg xmlns="http://www.w3.org/2000/svg" aria-hidden="true" style="position:absolute;width:0;height:0;overflow:hidden">
  <defs>
    <symbol id="icon-mdi_users" viewBox="0 0 32 32">
      <path d="m19.043 22.529-.548 2.044L4.189 20.74l.548-2.044s1.095-4.087 8.248-2.171 6.058 6.004 6.058 6.004zm-.976-10.666a3.704 3.704 0 0 0-3.334-4.653 3.706 3.706 0 0 0-3.563 2.057 3.707 3.707 0 0 0 .537 4.079 3.704 3.704 0 0 0 6.36-1.483zm2.01 6.562a5.63 5.63 0 0 1 1.01 4.652l-.548 2.044 4.087 1.095.548-2.044s.994-3.709-5.097-5.747zm1.503-9.454a3.597 3.597 0 0 0-2.134.074 5.288 5.288 0 0 1-1.593 5.947 3.583 3.583 0 0 0 1.811 1.131 3.705 3.705 0 0 0 4.535-2.618 3.704 3.704 0 0 0-2.618-4.535z"/>
    </symbol>
    <symbol id="icon-user" viewBox="0 0 32 32">
      <path d="M16 5.333a5.332 5.332 0 1 1 0 10.665 5.332 5.332 0 0 1 0-10.665zm0 13.334c5.893 0 10.667 2.387 10.667 5.333v2.667H5.334V24c0-2.947 4.773-5.333 10.667-5.333z"/>
    </symbol>
    <symbol id="icon-star" viewBox="0 0 32 32">
      <path d="M15.116 1.676a1 1 0 0 1 1.769 0l3.777 7.158c.145.274.408.466.714.519l7.975 1.38a1 1 0 0 1 .547 1.682l-5.641 5.804a1 1 0 0 0-.273.839l1.152 8.01a1 1 0 0 1-1.431 1.04l-7.263-3.571a.998.998 0 0 0-.882 0l-7.262 3.571a1 1 0 0 1-1.431-1.04l1.152-8.01a1 1 0 0 0-.273-.839l-5.64-5.804a1 1 0 0 1 .547-1.682l7.974-1.38a.998.998 0 0 0 .714-.519l3.776-7.158z"/>
      <path stroke-width="2.4" d="M12.4 9.394 16 2.572l3.6 6.822a2.2 2.2 0 0 0 1.571 1.141l7.601 1.315-5.376 5.532a2.2 2.2 0 0 0-.6 1.846l1.098 7.635-6.922-3.404a2.199 2.199 0 0 0-1.941 0l-6.922 3.404 1.098-7.635a2.2 2.2 0 0 0-.6-1.846L3.231 11.85l7.601-1.315a2.202 2.202 0 0 0 1.571-1.141z"/>
    </symbol>
    <symbol id="icon-heart" viewBox="0 0 38 32">
      <path stroke-linecap="round" stroke-linejoin="round" stroke-width="2.909" d="M32.839 4.355a8.672 8.672 0 0 0-6.13-2.54 8.668 8.668 0 0 0-6.13 2.54l-1.67 1.67-1.67-1.67a8.669 8.669 0 0 0-12.26 12.26l13.93 13.93 13.93-13.93a8.672 8.672 0 0 0 2.54-6.13 8.664 8.664 0 0 0-2.54-6.13z"/>
    </symbol>
    <symbol id="icon-eye-off" viewBox="0 0 32 32">
      <path stroke-linecap="round" stroke-linejoin="round" stroke-width="3.2" d="M23.92 23.92A13.43 13.43 0 0 1 16 26.667C6.667 26.667 1.333 16 1.333 16A24.605 24.605 0 0 1 8.08 8.08m5.12-2.427a12.161 12.161 0 0 1 2.8-.32C25.333 5.333 30.667 16 30.667 16a24.646 24.646 0 0 1-2.88 4.253m-8.96-1.426a4.01 4.01 0 0 1-2.855 1.273 3.994 3.994 0 0 1-4.069-4.07 3.999 3.999 0 0 1 1.273-2.855M1.333 1.333l29.333 29.333"/>
    </symbol>
    <symbol id="icon-fe_check" viewBox="0 0 32 32">
      <path d="M8 13.333 5.333 16l8 8 13.333-13.333L23.999 8 13.332 18.667l-5.333-5.333z"/>
    </symbol>
    <symbol id="icon-fa6-solid_question" viewBox="0 0 19 32">
      <path d="M4.706 10c0-2.206 1.688-4 3.765-4h1.882c2.076 0 3.765 1.794 3.765 4v.225c0 1.363-.653 2.631-1.729 3.362l-2.482 1.694c-.729.498-1.328 1.182-1.744 1.99s-.633 1.714-.633 2.635V20c0 1.106.841 2 1.882 2s1.882-.894 1.882-2v-.088c0-.512.247-.987.647-1.262l2.482-1.694c2.153-1.475 3.459-4.006 3.459-6.731V10c0-4.419-3.371-8-7.529-8H8.471C4.312 2 .942 5.581.942 10c0 1.106.841 2 1.882 2s1.882-.894 1.882-2zm4.706 20c.624 0 1.223-.263 1.664-.732s.689-1.105.689-1.768-.248-1.299-.689-1.768S10.036 25 9.412 25s-1.223.263-1.664.732c-.441.469-.689 1.105-.689 1.768s.248 1.299.689 1.768S8.788 30 9.412 30z"/>
    </symbol>
    <symbol id="icon-arrow-top" viewBox="0 0 28 32">
      <path d="M25.236 3.149a1.882 1.882 0 0 0-2.126-1.602L6.334 3.905a1.883 1.883 0 0 0 .524 3.728L21.77 5.537l2.096 14.912a1.883 1.883 0 0 0 3.728-.524L25.236 3.149zM4.484 31.604l20.391-27.06-3.007-2.266-20.391 27.06 3.007 2.266z"/>
    </symbol>
    <symbol id="icon-arrow-right" viewBox="0 0 40 32">
      <path d="M39.436 17.075a2 2 0 0 0-.049-2.828L26.439 1.743A2 2 0 0 0 23.66 4.62l11.509 11.115-11.114 11.509a2 2 0 0 0 2.877 2.779l12.504-12.948zM2.037 18.314l35.995-.628-.07-3.999-35.995.628.07 3.999z"/>
    </symbol>
    <symbol id="icon-clock" viewBox="0 0 32 32">
      <path stroke-linecap="round" stroke-linejoin="round" stroke-width="2.4" d="M16 29.333c7.364 0 13.333-5.97 13.333-13.333S23.364 2.667 16 2.667 2.667 8.637 2.667 16 8.637 29.333 16 29.333z"/>
      <path stroke-linecap="round" stroke-linejoin="round" stroke-width="2.4" d="M16 8v8l5.333 2.667"/>
    </symbol>
    <symbol id="icon-eye" viewBox="0 0 32 32">
      <path stroke-linecap="round" stroke-linejoin="round" stroke-width="3.2" d="M1.333 16S6.666 5.333 16 5.333 30.667 16 30.667 16 25.334 26.667 16 26.667 1.333 16 1.333 16z"/>
      <path stroke-linecap="round" stroke-linejoin="round" stroke-width="3.2" d="M16 20a4 4 0 1 0 0-8 4 4 0 0 0 0 8z"/>
    </symbol>
    <symbol id="icon-psycholog" viewBox="0 0 32 32">
<path fill="#97b8f7" style="fill: var(--color1, #97b8f7)" d="M19.871 15.471c0 0-1.168-1.48-1.17-1.482-0.046-0.058 0-0.405-0-0.48-0.007-0.981-0.079-1.957-0.535-2.84 0.319 0.136 0.975 0.603 0.975 0.603 0-0.537-0.339-1.092-0.339-1.092 0.767-0.843 0.781-2.224 0.781-2.224s-2.64 0.671-5.591 0.403c-2.951-0.268-4.714 2.108-5.174 3.756s0.958 3.91 1.303 4.408c0.345 0.498-0.153 0.92-0.153 0.92 0.278-0.009 0.481-0.059 0.629-0.131 0.001 0.076 0 0.152-0.001 0.227-0.007 0.393-0.071 0.776-0.172 1.152-0.012 0.044-0.005 0.090 0.021 0.127 0.499 0.727 1.565 1.895 3.403 2.196 0.079 0.013 0.326 0.114 0.345 0.036 0 0-0.016-0.906 0.020-1.087 0.021-0.105 0.115-0.179 0.223-0.174 0.709 0.034 1.698 0.048 2.201 0.062 1.079 0.029 1.953 0.084 2.065-1.284v-0.688c-1.22-0.115-1.533-0.728-1.533-0.728h1.533v-0.457c0-0.21 0.171-0.381 0.381-0.381 0 0 1.24-0.18 0.788-0.843zM17.392 14.307c-0.21 1.658-1.667 2.943-3.434 2.943-1.911 0-3.461-1.503-3.461-3.356s1.549-3.356 3.461-3.356c1.813 0 3.3 1.353 3.448 3.074 0.864 0.225 1.104 0.695 1.104 0.695h-1.118z"></path>
<path fill="#606060" style="fill: var(--color2, #606060)" d="M13.936 13.991l0.187 0.089c0.082 0.039 0.18 0.004 0.219-0.078l0.226-0.477c0.039-0.082 0.004-0.18-0.078-0.219l-0.239-0.114c-0.014-0.007-0.023-0.021-0.023-0.037 0.001-0.040-0-0.081-0.003-0.122-0.006-0.078-0.020-0.153-0.039-0.226-0.004-0.016 0.002-0.033 0.016-0.043l0.183-0.127c0.075-0.052 0.094-0.154 0.042-0.229l-0.3-0.435c-0.052-0.075-0.154-0.094-0.229-0.042l-0.2 0.138c-0.013 0.009-0.031 0.009-0.044 0-0.105-0.069-0.221-0.122-0.344-0.158-0.016-0.005-0.027-0.018-0.029-0.035l-0.015-0.189c-0.007-0.091-0.087-0.158-0.177-0.151l-0.526 0.043c-0.091 0.007-0.158 0.087-0.151 0.177l0.015 0.189c0.001 0.017-0.008 0.032-0.023 0.039-0.131 0.063-0.25 0.147-0.351 0.248-0.012 0.012-0.030 0.015-0.045 0.008l-0.123-0.058c-0.082-0.039-0.18-0.004-0.219 0.078l-0.226 0.477c-0.039 0.082-0.004 0.18 0.078 0.219l0.14 0.067c0.015 0.007 0.024 0.022 0.023 0.039-0.004 0.058-0.004 0.116 0.001 0.176 0.008 0.096 0.027 0.188 0.054 0.275 0.005 0.017-0.001 0.035-0.015 0.045l-0.098 0.067c-0.075 0.052-0.094 0.154-0.042 0.229l0.3 0.435c0.052 0.075 0.154 0.094 0.229 0.042l0.146-0.101c0.013-0.009 0.030-0.009 0.043-0.001 0.122 0.073 0.256 0.126 0.398 0.155 0.017 0.004 0.031 0.018 0.032 0.036l0.013 0.155c0.007 0.091 0.087 0.158 0.177 0.151l0.526-0.043c0.091-0.007 0.158-0.087 0.151-0.177l-0.019-0.233c-0.001-0.015 0.006-0.030 0.020-0.037 0.109-0.064 0.208-0.143 0.293-0.235 0.012-0.013 0.030-0.017 0.046-0.009zM13.054 13.754c-0.344 0.028-0.646-0.229-0.674-0.573s0.229-0.646 0.573-0.674c0.344-0.028 0.646 0.229 0.674 0.573s-0.229 0.646-0.573 0.674z"></path>
<path fill="#606060" style="fill: var(--color2, #606060)" d="M16.095 15.324l-0.167-0.079c-0.010-0.005-0.016-0.015-0.016-0.026 0.001-0.028-0-0.056-0.002-0.085-0.004-0.054-0.014-0.107-0.027-0.158-0.003-0.011 0.001-0.023 0.011-0.030l0.128-0.088c0.052-0.036 0.065-0.107 0.029-0.159l-0.209-0.302c-0.036-0.052-0.107-0.065-0.159-0.029l-0.139 0.096c-0.009 0.006-0.021 0.006-0.031 0-0.073-0.048-0.154-0.085-0.239-0.11-0.011-0.003-0.019-0.013-0.020-0.024l-0.011-0.131c-0.005-0.063-0.060-0.11-0.123-0.105l-0.366 0.030c-0.063 0.005-0.11 0.060-0.105 0.123l0.011 0.131c0.001 0.011-0.005 0.022-0.016 0.027-0.091 0.044-0.174 0.102-0.244 0.172-0.008 0.008-0.021 0.011-0.031 0.006l-0.085-0.041c-0.057-0.027-0.126-0.003-0.153 0.054l-0.157 0.332c-0.027 0.057-0.003 0.126 0.054 0.153l0.098 0.046c0.010 0.005 0.016 0.015 0.016 0.027-0.002 0.040-0.003 0.081 0.001 0.122 0.005 0.067 0.019 0.13 0.038 0.192 0.004 0.012-0.001 0.024-0.011 0.031l-0.068 0.047c-0.052 0.036-0.065 0.107-0.029 0.159l0.209 0.302c0.036 0.052 0.107 0.065 0.159 0.029l0.102-0.070c0.009-0.006 0.021-0.006 0.030-0.001 0.085 0.051 0.178 0.087 0.277 0.108 0.012 0.003 0.021 0.012 0.022 0.025l0.009 0.108c0.005 0.063 0.060 0.11 0.123 0.105l0.366-0.030c0.063-0.005 0.11-0.060 0.105-0.123l-0.013-0.162c-0.001-0.011 0.004-0.021 0.014-0.026 0.076-0.044 0.144-0.1 0.203-0.164 0.008-0.009 0.021-0.012 0.032-0.006l0.13 0.062c0.057 0.027 0.126 0.003 0.153-0.054l0.157-0.332c0.027-0.057 0.003-0.125-0.054-0.153zM15.096 15.637c-0.239 0.019-0.449-0.159-0.469-0.398s0.159-0.449 0.398-0.469 0.449 0.159 0.469 0.398c0.019 0.239-0.159 0.449-0.398 0.469z"></path>
<path fill="#606060" style="fill: var(--color2, #606060)" d="M16.064 12.989l-0.104-0.015c-0.007-0.001-0.012-0.006-0.014-0.013-0.013-0.053-0.034-0.104-0.063-0.151-0.004-0.006-0.003-0.014 0.001-0.019l0.051-0.065c0.024-0.031 0.019-0.076-0.012-0.1l-0.18-0.141c-0.031-0.024-0.076-0.019-0.1 0.012l-0.051 0.064c-0.004 0.006-0.012 0.008-0.019 0.006-0.060-0.019-0.122-0.027-0.184-0.024-0.007 0-0.014-0.004-0.017-0.011l-0.022-0.055c-0.015-0.036-0.056-0.054-0.093-0.040l-0.212 0.085c-0.036 0.015-0.054 0.056-0.040 0.093l0.025 0.062c0.003 0.007 0.001 0.014-0.004 0.019-0.018 0.017-0.035 0.036-0.051 0.056-0.026 0.033-0.046 0.068-0.063 0.104-0.003 0.007-0.010 0.011-0.018 0.010l-0.051-0.007c-0.039-0.006-0.075 0.022-0.081 0.060l-0.032 0.226c-0.006 0.039 0.022 0.075 0.060 0.081l0.076 0.011c0.007 0.001 0.012 0.006 0.014 0.012 0.017 0.059 0.044 0.115 0.081 0.166 0.004 0.006 0.004 0.015-0 0.021l-0.041 0.053c-0.024 0.031-0.019 0.076 0.012 0.1l0.18 0.141c0.031 0.024 0.076 0.019 0.1-0.012l0.062-0.079c0.004-0.005 0.011-0.008 0.017-0.006 0.053 0.012 0.108 0.015 0.162 0.011 0.008-0.001 0.015 0.004 0.017 0.011l0.033 0.083c0.015 0.036 0.056 0.054 0.093 0.040l0.212-0.085c0.036-0.015 0.054-0.056 0.040-0.093l-0.043-0.106c-0.003-0.006-0.001-0.013 0.004-0.018 0.012-0.013 0.024-0.026 0.035-0.040 0.021-0.027 0.039-0.054 0.054-0.083 0.003-0.006 0.010-0.010 0.018-0.009l0.095 0.014c0.039 0.006 0.075-0.022 0.081-0.060l0.032-0.226c0.006-0.039-0.021-0.075-0.060-0.081zM15.641 13.274c-0.092 0.117-0.262 0.138-0.38 0.046s-0.138-0.262-0.046-0.38c0.092-0.117 0.262-0.138 0.38-0.046s0.138 0.262 0.046 0.38z"></path>
<path fill="#89a7e0" style="fill: var(--color3, #89a7e0)" d="M14.193 21.051c0 0-0.016-0.906 0.020-1.087 0.021-0.105 0.115-0.179 0.223-0.174 0.709 0.034 1.698 0.048 2.201 0.062 0.959 0.026 1.755 0.071 1.999-0.877-1.196-0.671-2.234-1.37-3.134-2.076-0.464 0.225-0.989 0.352-1.543 0.352-1.911 0-3.461-1.503-3.461-3.356 0-0.706 0.225-1.361 0.609-1.901-0.462-0.791-0.782-1.51-1.002-2.116-0.659 0.705-1.090 1.538-1.286 2.239-0.46 1.648 0.958 3.909 1.303 4.408s-0.153 0.92-0.153 0.92c0.278-0.009 0.481-0.059 0.629-0.131 0.001 0.076 0 0.152-0.001 0.227-0.007 0.393-0.071 0.776-0.172 1.152-0.012 0.044-0.005 0.090 0.021 0.127 0.499 0.727 1.565 1.895 3.403 2.196 0.079 0.013 0.326 0.114 0.345 0.036z"></path>
<path fill="#606060" style="fill: var(--color2, #606060)" d="M10.249 18.489c0.065-0.024 0.165-0.053 0.233-0.035l-0.060 0.25c0.876 0.813 2.584 1.564 3.808 1.907 0.055 0.015 0.093 0.065 0.093 0.123l-0.014 2.59c-0.001 0.097-0.106 0.158-0.19 0.109-0.634-0.367-2.73-1.645-4.201-3.302-0.026-0.030-0.037-0.070-0.030-0.109l0.282-1.438c0.008-0.043 0.038-0.079 0.079-0.094z"></path>
</symbol>
  </defs>
</svg>
